/*
  File Generated by arduino-tablature
  Git-repository: https://github.com/ThiagoAugustoSM/arduino-tablature
  Author: thiagoaugustosm
  License: GNU General Public License v3.0
*/

// Change to your Buzzer Pin
#define buzzerPin 10
// Change the Pause time in miliseconds
#define PAUSE 100

void setup(){
  pinMode(buzzerPin, OUTPUT);
}

void loop(){
  // 1 TAB
  delay(PAUSE);
  delay(PAUSE);
  tone(buzzerPin, NOTE_GS2);
  delay(PAUSE);
  tone(buzzerPin, NOTE_GS2);
  delay(PAUSE);
  tone(buzzerPin, NOTE_B2);
  delay(PAUSE);
  tone(buzzerPin, NOTE_CS3);
  delay(PAUSE);
  tone(buzzerPin, NOTE_CS3);
  delay(PAUSE);
  tone(buzzerPin, NOTE_E3);
  delay(PAUSE);
  tone(buzzerPin, NOTE_GS2);
  delay(PAUSE);
  tone(buzzerPin, NOTE_B2);
  delay(PAUSE);
  tone(buzzerPin, NOTE_GS2);
  delay(PAUSE);
  tone(buzzerPin, NOTE_GS2);
  delay(PAUSE);
  delay(PAUSE);
  tone(buzzerPin, NOTE_B2);
  delay(PAUSE);
  tone(buzzerPin, NOTE_CS3);
  delay(PAUSE);
  tone(buzzerPin, NOTE_CS3);
  delay(PAUSE);
  tone(buzzerPin, NOTE_E3);
  delay(PAUSE);
  tone(buzzerPin, NOTE_GS2);
  delay(PAUSE);
  tone(buzzerPin, NOTE_B2);
  delay(PAUSE);
  delay(PAUSE);
  delay(PAUSE);
  delay(PAUSE);
  delay(PAUSE);
  delay(PAUSE);
  delay(PAUSE);
  delay(PAUSE);
  delay(PAUSE);
  delay(PAUSE);
  delay(PAUSE);
  delay(PAUSE);
  delay(PAUSE);
  delay(PAUSE);
  delay(PAUSE);
  delay(PAUSE);
  delay(PAUSE);
  // 2 TAB
  delay(PAUSE);
  delay(PAUSE);
  tone(buzzerPin, NOTE_GS2);
  delay(PAUSE);
  tone(buzzerPin, NOTE_CS3);
  delay(PAUSE);
  tone(buzzerPin, NOTE_B2);
  delay(PAUSE);
  tone(buzzerPin, NOTE_GS2);
  delay(PAUSE);
  tone(buzzerPin, NOTE_G2);
  delay(PAUSE);
  tone(buzzerPin, NOTE_FS2);
  delay(PAUSE);
  tone(buzzerPin, NOTE_FS2);
  delay(PAUSE);
  tone(buzzerPin, NOTE_FS2);
  delay(PAUSE);
  tone(buzzerPin, NOTE_E2);
  delay(PAUSE);
  tone(buzzerPin, NOTE_GS2);
  delay(PAUSE);
  delay(PAUSE);
  delay(PAUSE);
  tone(buzzerPin, NOTE_GS2);
  delay(PAUSE);
  tone(buzzerPin, NOTE_CS3);
  delay(PAUSE);
  tone(buzzerPin, NOTE_B2);
  delay(PAUSE);
  tone(buzzerPin, NOTE_GS2);
  delay(PAUSE);
  tone(buzzerPin, NOTE_G2);
  delay(PAUSE);
  tone(buzzerPin, NOTE_FS2);
  delay(PAUSE);
  tone(buzzerPin, NOTE_FS2);
  delay(PAUSE);
  tone(buzzerPin, NOTE_FS2);
  delay(PAUSE);
  tone(buzzerPin, NOTE_E2);
  delay(PAUSE);
  tone(buzzerPin, NOTE_GS2);
  delay(PAUSE);
  delay(PAUSE);
  delay(PAUSE);
  delay(PAUSE);
  delay(PAUSE);
  delay(PAUSE);
  delay(PAUSE);
  delay(PAUSE);
  // 3 TAB
  delay(PAUSE);
  delay(PAUSE);
  tone(buzzerPin, NOTE_GS2);
  delay(PAUSE);
  tone(buzzerPin, NOTE_CS3);
  delay(PAUSE);
  tone(buzzerPin, NOTE_B2);
  delay(PAUSE);
  tone(buzzerPin, NOTE_GS2);
  delay(PAUSE);
  tone(buzzerPin, NOTE_G2);
  delay(PAUSE);
  tone(buzzerPin, NOTE_FS2);
  delay(PAUSE);
  tone(buzzerPin, NOTE_FS2);
  delay(PAUSE);
  tone(buzzerPin, NOTE_FS2);
  delay(PAUSE);
  tone(buzzerPin, NOTE_E2);
  delay(PAUSE);
  tone(buzzerPin, NOTE_GS2);
  delay(PAUSE);
  delay(PAUSE);
  delay(PAUSE);
  tone(buzzerPin, NOTE_GS2);
  delay(PAUSE);
  tone(buzzerPin, NOTE_CS3);
  delay(PAUSE);
  tone(buzzerPin, NOTE_B2);
  delay(PAUSE);
  tone(buzzerPin, NOTE_GS2);
  delay(PAUSE);
  tone(buzzerPin, NOTE_G2);
  delay(PAUSE);
  tone(buzzerPin, NOTE_FS2);
  delay(PAUSE);
  tone(buzzerPin, NOTE_FS2);
  delay(PAUSE);
  tone(buzzerPin, NOTE_FS2);
  delay(PAUSE);
  tone(buzzerPin, NOTE_A2);
  delay(PAUSE);
  tone(buzzerPin, NOTE_B2);
  delay(PAUSE);
  delay(PAUSE);
  delay(PAUSE);
  delay(PAUSE);
  delay(PAUSE);
  delay(PAUSE);
  delay(PAUSE);
  delay(PAUSE);
}